<svg width="312" height="524" viewBox="0 0 312 524" fill="none" xmlns="http://www.w3.org/2000/svg">
<rect x="2" y="2" width="308" height="520" rx="39" fill="white" stroke="#001C81" stroke-width="4"/>
<rect x="77.7507" y="500.322" width="156.498" height="5.14735" rx="2.57367" fill="#020821"/>
<rect x="21" y="228" width="270" height="30" rx="15" fill="#020202"/>
<g clip-path="url(#clip0_71_24)">
<path d="M212.149 235.64H214.592L209.255 241.876L215.534 250.36H210.618L206.768 245.213L202.361 250.36H199.917L205.626 243.689L199.603 235.64H204.644L208.124 240.344L212.149 235.64ZM211.292 248.866H212.646L203.908 237.056H202.456L211.292 248.866Z" fill="white"/>
</g>
<path d="M104.47 247.714V238.987H110.351V240.508H106.315V242.588H110.048V244.109H106.315V246.193H110.368V247.714H104.47ZM113.599 243.93V247.714H111.784V241.169H113.514V242.324H113.591C113.735 241.943 113.978 241.642 114.319 241.42C114.66 241.196 115.074 241.084 115.559 241.084C116.014 241.084 116.41 241.183 116.748 241.382C117.086 241.581 117.349 241.865 117.537 242.234C117.724 242.601 117.818 243.038 117.818 243.547V247.714H116.003V243.871C116.005 243.47 115.903 243.157 115.696 242.933C115.488 242.706 115.203 242.592 114.839 242.592C114.595 242.592 114.379 242.645 114.191 242.75C114.007 242.855 113.862 243.008 113.757 243.21C113.655 243.409 113.602 243.649 113.599 243.93ZM122.73 241.169V242.532H118.788V241.169H122.73ZM119.683 239.601H121.499V245.703C121.499 245.871 121.524 246.001 121.575 246.095C121.626 246.186 121.697 246.25 121.788 246.287C121.882 246.324 121.99 246.342 122.112 246.342C122.197 246.342 122.283 246.335 122.368 246.321C122.453 246.304 122.518 246.291 122.564 246.282L122.849 247.633C122.759 247.662 122.631 247.694 122.466 247.731C122.301 247.771 122.101 247.795 121.865 247.804C121.428 247.821 121.044 247.763 120.715 247.629C120.388 247.496 120.134 247.288 119.952 247.007C119.77 246.726 119.68 246.371 119.683 245.942V239.601ZM123.913 247.714V241.169H125.673V242.311H125.741C125.86 241.905 126.06 241.598 126.342 241.39C126.623 241.18 126.947 241.075 127.313 241.075C127.404 241.075 127.502 241.081 127.607 241.092C127.712 241.103 127.805 241.119 127.884 241.139V242.75C127.799 242.724 127.681 242.702 127.531 242.682C127.38 242.662 127.242 242.652 127.117 242.652C126.85 242.652 126.612 242.71 126.401 242.827C126.194 242.94 126.029 243.099 125.907 243.304C125.788 243.508 125.728 243.744 125.728 244.011V247.714H123.913ZM131.501 247.842C130.828 247.842 130.248 247.706 129.762 247.433C129.28 247.157 128.907 246.768 128.646 246.265C128.385 245.76 128.254 245.162 128.254 244.471C128.254 243.798 128.385 243.207 128.646 242.699C128.907 242.19 129.275 241.794 129.75 241.51C130.227 241.226 130.787 241.084 131.429 241.084C131.86 241.084 132.262 241.153 132.635 241.292C133.01 241.429 133.336 241.635 133.615 241.91C133.896 242.186 134.115 242.532 134.271 242.95C134.427 243.365 134.505 243.851 134.505 244.407V244.906H128.978V243.781H132.797C132.797 243.52 132.74 243.288 132.626 243.086C132.512 242.885 132.355 242.727 132.153 242.613C131.954 242.497 131.723 242.439 131.458 242.439C131.183 242.439 130.939 242.503 130.726 242.63C130.515 242.755 130.351 242.925 130.231 243.138C130.112 243.348 130.051 243.582 130.048 243.841V244.91C130.048 245.234 130.108 245.514 130.227 245.75C130.349 245.986 130.521 246.167 130.743 246.295C130.964 246.423 131.227 246.487 131.531 246.487C131.733 246.487 131.917 246.459 132.085 246.402C132.253 246.345 132.396 246.26 132.515 246.146C132.635 246.032 132.726 245.893 132.788 245.728L134.467 245.839C134.382 246.243 134.207 246.595 133.943 246.896C133.681 247.194 133.343 247.427 132.929 247.595C132.517 247.76 132.041 247.842 131.501 247.842ZM142.665 244.927V241.169H144.48V247.714H142.737V246.525H142.669C142.521 246.909 142.276 247.217 141.932 247.45C141.591 247.683 141.175 247.8 140.683 247.8C140.246 247.8 139.861 247.7 139.528 247.501C139.196 247.302 138.936 247.02 138.749 246.653C138.564 246.287 138.47 245.848 138.467 245.336V241.169H140.283V245.013C140.286 245.399 140.389 245.704 140.594 245.929C140.798 246.153 141.072 246.265 141.416 246.265C141.635 246.265 141.84 246.216 142.03 246.116C142.22 246.014 142.374 245.863 142.49 245.665C142.609 245.466 142.668 245.22 142.665 244.927ZM151.378 243.035L149.716 243.138C149.688 242.996 149.627 242.868 149.533 242.754C149.439 242.638 149.316 242.545 149.162 242.477C149.012 242.406 148.831 242.371 148.621 242.371C148.34 242.371 148.103 242.43 147.909 242.55C147.716 242.666 147.62 242.822 147.62 243.018C147.62 243.175 147.682 243.307 147.807 243.415C147.932 243.523 148.147 243.609 148.451 243.675L149.635 243.913C150.272 244.044 150.746 244.254 151.059 244.544C151.371 244.834 151.527 245.214 151.527 245.686C151.527 246.115 151.401 246.491 151.148 246.815C150.898 247.139 150.554 247.392 150.117 247.574C149.682 247.753 149.181 247.842 148.613 247.842C147.746 247.842 147.056 247.662 146.542 247.301C146.03 246.937 145.73 246.443 145.642 245.818L147.428 245.724C147.482 245.988 147.613 246.19 147.82 246.329C148.027 246.466 148.293 246.534 148.617 246.534C148.935 246.534 149.191 246.473 149.384 246.351C149.58 246.226 149.679 246.065 149.682 245.869C149.679 245.704 149.61 245.569 149.473 245.464C149.337 245.356 149.127 245.274 148.843 245.217L147.709 244.991C147.07 244.863 146.594 244.642 146.282 244.327C145.972 244.011 145.817 243.609 145.817 243.121C145.817 242.7 145.931 242.338 146.158 242.034C146.388 241.73 146.711 241.496 147.125 241.331C147.543 241.166 148.032 241.084 148.591 241.084C149.418 241.084 150.069 241.258 150.543 241.608C151.02 241.957 151.299 242.433 151.378 243.035ZM154.537 247.838C154.119 247.838 153.747 247.765 153.42 247.621C153.094 247.473 152.835 247.255 152.645 246.969C152.457 246.679 152.364 246.318 152.364 245.886C152.364 245.523 152.43 245.217 152.564 244.97C152.697 244.723 152.879 244.524 153.109 244.373C153.34 244.223 153.601 244.109 153.893 244.032C154.189 243.956 154.499 243.902 154.822 243.871C155.203 243.831 155.51 243.794 155.743 243.76C155.976 243.723 156.145 243.669 156.25 243.598C156.355 243.527 156.408 243.422 156.408 243.282V243.257C156.408 242.987 156.322 242.778 156.152 242.63C155.984 242.483 155.746 242.409 155.436 242.409C155.109 242.409 154.849 242.481 154.656 242.626C154.463 242.768 154.335 242.947 154.273 243.163L152.594 243.027C152.679 242.629 152.847 242.285 153.097 241.996C153.347 241.703 153.669 241.478 154.064 241.322C154.462 241.163 154.922 241.084 155.445 241.084C155.808 241.084 156.156 241.126 156.489 241.211C156.824 241.297 157.121 241.429 157.379 241.608C157.641 241.787 157.847 242.017 157.997 242.298C158.148 242.577 158.223 242.91 158.223 243.3V247.714H156.501V246.807H156.45C156.345 247.011 156.205 247.192 156.028 247.348C155.852 247.501 155.641 247.622 155.393 247.71C155.146 247.795 154.861 247.838 154.537 247.838ZM155.057 246.585C155.324 246.585 155.56 246.532 155.764 246.427C155.969 246.319 156.129 246.175 156.246 245.993C156.362 245.811 156.42 245.605 156.42 245.375V244.68C156.364 244.717 156.286 244.751 156.186 244.782C156.09 244.811 155.98 244.838 155.858 244.863C155.736 244.886 155.614 244.907 155.492 244.927C155.369 244.944 155.259 244.96 155.159 244.974C154.946 245.005 154.76 245.055 154.601 245.123C154.442 245.192 154.318 245.284 154.23 245.4C154.142 245.514 154.098 245.656 154.098 245.827C154.098 246.074 154.188 246.263 154.367 246.393C154.548 246.521 154.778 246.585 155.057 246.585ZM161.447 243.93V247.714H159.631V241.169H161.362V242.324H161.438C161.583 241.943 161.826 241.642 162.167 241.42C162.508 241.196 162.921 241.084 163.407 241.084C163.862 241.084 164.258 241.183 164.596 241.382C164.934 241.581 165.197 241.865 165.384 242.234C165.572 242.601 165.666 243.038 165.666 243.547V247.714H163.85V243.871C163.853 243.47 163.751 243.157 163.543 242.933C163.336 242.706 163.05 242.592 162.687 242.592C162.443 242.592 162.227 242.645 162.039 242.75C161.854 242.855 161.71 243.008 161.604 243.21C161.502 243.409 161.45 243.649 161.447 243.93ZM169.508 247.821C169.011 247.821 168.561 247.693 168.157 247.437C167.757 247.179 167.439 246.8 167.203 246.3C166.97 245.797 166.853 245.18 166.853 244.45C166.853 243.7 166.974 243.077 167.216 242.579C167.457 242.079 167.778 241.706 168.179 241.459C168.582 241.209 169.024 241.084 169.504 241.084C169.87 241.084 170.176 241.146 170.42 241.271C170.667 241.393 170.866 241.547 171.017 241.731C171.17 241.913 171.287 242.092 171.366 242.268H171.422V238.987H173.233V247.714H171.443V246.666H171.366C171.281 246.848 171.16 247.028 171.004 247.207C170.851 247.383 170.65 247.53 170.403 247.646C170.159 247.763 169.86 247.821 169.508 247.821ZM170.083 246.376C170.376 246.376 170.623 246.297 170.825 246.138C171.03 245.976 171.186 245.75 171.294 245.46C171.405 245.17 171.46 244.831 171.46 244.442C171.46 244.052 171.406 243.714 171.298 243.427C171.19 243.14 171.034 242.919 170.829 242.763C170.625 242.606 170.376 242.528 170.083 242.528C169.785 242.528 169.534 242.609 169.329 242.771C169.125 242.933 168.97 243.157 168.865 243.444C168.76 243.731 168.707 244.064 168.707 244.442C168.707 244.822 168.76 245.159 168.865 245.452C168.973 245.741 169.128 245.969 169.329 246.133C169.534 246.295 169.785 246.376 170.083 246.376ZM177.683 247.842C177.021 247.842 176.448 247.702 175.965 247.42C175.485 247.136 175.114 246.741 174.853 246.236C174.592 245.727 174.461 245.138 174.461 244.467C174.461 243.791 174.592 243.2 174.853 242.694C175.114 242.186 175.485 241.791 175.965 241.51C176.448 241.226 177.021 241.084 177.683 241.084C178.344 241.084 178.916 241.226 179.396 241.51C179.879 241.791 180.251 242.186 180.512 242.694C180.773 243.2 180.904 243.791 180.904 244.467C180.904 245.138 180.773 245.727 180.512 246.236C180.251 246.741 179.879 247.136 179.396 247.42C178.916 247.702 178.344 247.842 177.683 247.842ZM177.691 246.436C177.992 246.436 178.244 246.351 178.445 246.18C178.647 246.007 178.799 245.771 178.901 245.473C179.006 245.175 179.059 244.835 179.059 244.454C179.059 244.074 179.006 243.734 178.901 243.436C178.799 243.138 178.647 242.902 178.445 242.728C178.244 242.555 177.992 242.469 177.691 242.469C177.387 242.469 177.131 242.555 176.924 242.728C176.719 242.902 176.565 243.138 176.46 243.436C176.357 243.734 176.306 244.074 176.306 244.454C176.306 244.835 176.357 245.175 176.46 245.473C176.565 245.771 176.719 246.007 176.924 246.18C177.131 246.351 177.387 246.436 177.691 246.436ZM187.819 247.842C187.157 247.842 186.585 247.702 186.102 247.42C185.622 247.136 185.251 246.741 184.99 246.236C184.728 245.727 184.598 245.138 184.598 244.467C184.598 243.791 184.728 243.2 184.99 242.694C185.251 242.186 185.622 241.791 186.102 241.51C186.585 241.226 187.157 241.084 187.819 241.084C188.481 241.084 189.052 241.226 189.532 241.51C190.015 241.791 190.387 242.186 190.649 242.694C190.91 243.2 191.041 243.791 191.041 244.467C191.041 245.138 190.91 245.727 190.649 246.236C190.387 246.741 190.015 247.136 189.532 247.42C189.052 247.702 188.481 247.842 187.819 247.842ZM187.828 246.436C188.129 246.436 188.38 246.351 188.582 246.18C188.784 246.007 188.936 245.771 189.038 245.473C189.143 245.175 189.196 244.835 189.196 244.454C189.196 244.074 189.143 243.734 189.038 243.436C188.936 243.138 188.784 242.902 188.582 242.728C188.38 242.555 188.129 242.469 187.828 242.469C187.524 242.469 187.268 242.555 187.061 242.728C186.856 242.902 186.701 243.138 186.596 243.436C186.494 243.734 186.443 244.074 186.443 244.454C186.443 244.835 186.494 245.175 186.596 245.473C186.701 245.771 186.856 246.007 187.061 246.18C187.268 246.351 187.524 246.436 187.828 246.436Z" fill="white"/>
<rect x="21" y="264.857" width="270" height="30" rx="15" fill="#CCCCCC"/>
<path d="M93.1603 284.571V275.844H98.8364V277.169H94.7412V279.539H98.5424V280.864H94.7412V283.246H98.8705V284.571H93.1603ZM101.924 280.736V284.571H100.381V278.026H101.856V279.138H101.932C102.083 278.772 102.323 278.481 102.652 278.265C102.985 278.049 103.395 277.941 103.884 277.941C104.336 277.941 104.729 278.037 105.064 278.231C105.402 278.424 105.664 278.704 105.848 279.07C106.036 279.437 106.128 279.881 106.125 280.404V284.571H104.583V280.642C104.583 280.205 104.469 279.863 104.242 279.616C104.018 279.368 103.706 279.245 103.309 279.245C103.039 279.245 102.799 279.304 102.589 279.424C102.381 279.54 102.218 279.709 102.098 279.931C101.982 280.152 101.924 280.421 101.924 280.736ZM110.962 278.026V279.219H107.199V278.026H110.962ZM108.128 276.458H109.671V282.603C109.671 282.81 109.702 282.969 109.765 283.08C109.83 283.188 109.915 283.262 110.02 283.302C110.125 283.341 110.242 283.361 110.37 283.361C110.466 283.361 110.554 283.354 110.634 283.34C110.716 283.326 110.779 283.313 110.821 283.302L111.081 284.508C110.999 284.536 110.881 284.567 110.728 284.601C110.577 284.635 110.393 284.655 110.174 284.661C109.787 284.672 109.439 284.614 109.13 284.486C108.82 284.356 108.574 284.154 108.393 283.881C108.214 283.608 108.125 283.267 108.128 282.858V276.458ZM112.252 284.571V278.026H113.748V279.117H113.816C113.935 278.739 114.14 278.448 114.43 278.243C114.722 278.036 115.056 277.932 115.431 277.932C115.516 277.932 115.612 277.937 115.717 277.945C115.825 277.951 115.914 277.961 115.985 277.975V279.394C115.92 279.371 115.816 279.351 115.674 279.334C115.535 279.314 115.4 279.304 115.269 279.304C114.988 279.304 114.735 279.366 114.511 279.488C114.289 279.607 114.114 279.773 113.987 279.986C113.859 280.199 113.795 280.445 113.795 280.723V284.571H112.252ZM119.638 284.699C118.982 284.699 118.415 284.563 117.938 284.29C117.464 284.015 117.098 283.625 116.843 283.123C116.587 282.617 116.459 282.022 116.459 281.337C116.459 280.664 116.587 280.073 116.843 279.564C117.101 279.053 117.462 278.655 117.925 278.371C118.388 278.084 118.932 277.941 119.557 277.941C119.961 277.941 120.341 278.006 120.699 278.137C121.06 278.265 121.378 278.464 121.654 278.733C121.932 279.003 122.151 279.347 122.31 279.765C122.469 280.179 122.549 280.674 122.549 281.248V281.721H117.184V280.681H121.07C121.067 280.385 121.003 280.123 120.878 279.892C120.753 279.66 120.579 279.476 120.354 279.343C120.133 279.209 119.874 279.142 119.579 279.142C119.263 279.142 118.986 279.219 118.748 279.373C118.509 279.523 118.323 279.722 118.189 279.969C118.059 280.214 117.992 280.482 117.989 280.775V281.682C117.989 282.063 118.059 282.39 118.198 282.662C118.337 282.932 118.532 283.14 118.782 283.285C119.032 283.427 119.324 283.498 119.66 283.498C119.884 283.498 120.087 283.466 120.269 283.404C120.451 283.339 120.608 283.243 120.742 283.118C120.875 282.993 120.976 282.839 121.045 282.654L122.485 282.816C122.394 283.196 122.221 283.529 121.965 283.813C121.712 284.094 121.388 284.313 120.993 284.469C120.598 284.623 120.147 284.699 119.638 284.699ZM131.002 281.819V278.026H132.545V284.571H131.049V283.408H130.981C130.833 283.775 130.59 284.074 130.252 284.307C129.917 284.54 129.504 284.657 129.012 284.657C128.583 284.657 128.204 284.562 127.874 284.371C127.548 284.178 127.292 283.898 127.107 283.532C126.923 283.162 126.83 282.716 126.83 282.194V278.026H128.373V281.955C128.373 282.37 128.487 282.699 128.714 282.944C128.941 283.188 129.239 283.31 129.609 283.31C129.836 283.31 130.056 283.255 130.269 283.144C130.482 283.033 130.657 282.868 130.793 282.65C130.933 282.428 131.002 282.151 131.002 281.819ZM139.304 279.756L137.898 279.91C137.858 279.767 137.789 279.634 137.689 279.509C137.593 279.384 137.462 279.283 137.297 279.206C137.133 279.13 136.931 279.091 136.692 279.091C136.371 279.091 136.101 279.161 135.883 279.3C135.667 279.439 135.56 279.62 135.563 279.841C135.56 280.032 135.63 280.187 135.772 280.306C135.917 280.425 136.155 280.523 136.488 280.6L137.604 280.839C138.223 280.972 138.684 281.184 138.985 281.473C139.289 281.763 139.442 282.142 139.445 282.611C139.442 283.023 139.321 283.387 139.083 283.702C138.847 284.015 138.519 284.259 138.098 284.435C137.678 284.611 137.195 284.699 136.65 284.699C135.848 284.699 135.204 284.532 134.715 284.196C134.226 283.858 133.935 283.388 133.841 282.786L135.346 282.641C135.414 282.937 135.559 283.16 135.78 283.31C136.002 283.461 136.29 283.536 136.645 283.536C137.012 283.536 137.306 283.461 137.527 283.31C137.752 283.16 137.864 282.973 137.864 282.752C137.864 282.564 137.792 282.41 137.647 282.287C137.505 282.165 137.283 282.071 136.982 282.006L135.866 281.772C135.238 281.641 134.773 281.421 134.472 281.111C134.171 280.799 134.022 280.404 134.025 279.927C134.022 279.523 134.131 279.174 134.353 278.878C134.577 278.58 134.888 278.35 135.286 278.188C135.687 278.023 136.148 277.941 136.671 277.941C137.438 277.941 138.042 278.104 138.482 278.431C138.925 278.758 139.199 279.199 139.304 279.756ZM142.601 284.704C142.186 284.704 141.812 284.63 141.48 284.482C141.15 284.331 140.889 284.11 140.696 283.817C140.505 283.525 140.41 283.164 140.41 282.735C140.41 282.366 140.478 282.06 140.615 281.819C140.751 281.577 140.937 281.384 141.173 281.239C141.409 281.094 141.674 280.985 141.97 280.911C142.268 280.834 142.576 280.779 142.895 280.745C143.278 280.705 143.589 280.669 143.828 280.638C144.067 280.604 144.24 280.553 144.348 280.485C144.459 280.414 144.514 280.304 144.514 280.157V280.131C144.514 279.81 144.419 279.562 144.228 279.385C144.038 279.209 143.764 279.121 143.406 279.121C143.028 279.121 142.728 279.204 142.507 279.368C142.288 279.533 142.14 279.728 142.064 279.952L140.623 279.748C140.737 279.35 140.924 279.017 141.186 278.75C141.447 278.481 141.767 278.279 142.145 278.145C142.522 278.009 142.94 277.941 143.397 277.941C143.713 277.941 144.027 277.978 144.339 278.052C144.652 278.125 144.937 278.248 145.196 278.418C145.454 278.586 145.662 278.814 145.818 279.104C145.977 279.394 146.057 279.756 146.057 280.191V284.571H144.574V283.672H144.522C144.429 283.854 144.297 284.025 144.126 284.184C143.959 284.34 143.747 284.466 143.491 284.563C143.238 284.657 142.942 284.704 142.601 284.704ZM143.001 283.57C143.311 283.57 143.579 283.509 143.807 283.387C144.034 283.262 144.209 283.097 144.331 282.892C144.456 282.688 144.518 282.465 144.518 282.223V281.452C144.47 281.492 144.388 281.529 144.271 281.563C144.157 281.597 144.03 281.627 143.888 281.652C143.745 281.678 143.605 281.701 143.466 281.721C143.326 281.741 143.206 281.758 143.103 281.772C142.873 281.803 142.667 281.854 142.486 281.925C142.304 281.996 142.16 282.096 142.055 282.223C141.95 282.348 141.897 282.51 141.897 282.709C141.897 282.993 142.001 283.208 142.209 283.353C142.416 283.498 142.68 283.57 143.001 283.57ZM149.15 280.736V284.571H147.608V278.026H149.082V279.138H149.159C149.309 278.772 149.549 278.481 149.879 278.265C150.211 278.049 150.622 277.941 151.111 277.941C151.562 277.941 151.956 278.037 152.291 278.231C152.629 278.424 152.89 278.704 153.075 279.07C153.263 279.437 153.355 279.881 153.352 280.404V284.571H151.809V280.642C151.809 280.205 151.696 279.863 151.469 279.616C151.244 279.368 150.933 279.245 150.535 279.245C150.265 279.245 150.025 279.304 149.815 279.424C149.608 279.54 149.444 279.709 149.325 279.931C149.209 280.152 149.15 280.421 149.15 280.736ZM157.349 284.687C156.835 284.687 156.375 284.554 155.969 284.29C155.562 284.026 155.241 283.642 155.005 283.14C154.77 282.637 154.652 282.026 154.652 281.307C154.652 280.58 154.771 279.966 155.01 279.466C155.251 278.964 155.576 278.584 155.986 278.329C156.395 278.07 156.851 277.941 157.353 277.941C157.737 277.941 158.052 278.006 158.299 278.137C158.547 278.265 158.743 278.419 158.888 278.601C159.032 278.78 159.145 278.949 159.224 279.108H159.288V275.844H160.835V284.571H159.318V283.54H159.224C159.145 283.699 159.03 283.868 158.879 284.047C158.728 284.223 158.53 284.374 158.282 284.499C158.035 284.624 157.724 284.687 157.349 284.687ZM157.78 283.421C158.106 283.421 158.385 283.333 158.615 283.157C158.845 282.978 159.02 282.729 159.139 282.411C159.258 282.093 159.318 281.722 159.318 281.299C159.318 280.875 159.258 280.508 159.139 280.195C159.022 279.883 158.849 279.64 158.619 279.466C158.392 279.293 158.112 279.206 157.78 279.206C157.436 279.206 157.149 279.296 156.919 279.475C156.689 279.654 156.515 279.901 156.399 280.216C156.282 280.532 156.224 280.892 156.224 281.299C156.224 281.708 156.282 282.073 156.399 282.394C156.518 282.712 156.693 282.964 156.923 283.148C157.156 283.33 157.442 283.421 157.78 283.421ZM165.334 284.699C164.695 284.699 164.141 284.559 163.672 284.277C163.203 283.996 162.84 283.603 162.581 283.097C162.325 282.591 162.198 282 162.198 281.324C162.198 280.648 162.325 280.056 162.581 279.547C162.84 279.039 163.203 278.644 163.672 278.363C164.141 278.081 164.695 277.941 165.334 277.941C165.973 277.941 166.527 278.081 166.996 278.363C167.465 278.644 167.827 279.039 168.083 279.547C168.341 280.056 168.47 280.648 168.47 281.324C168.47 282 168.341 282.591 168.083 283.097C167.827 283.603 167.465 283.996 166.996 284.277C166.527 284.559 165.973 284.699 165.334 284.699ZM165.342 283.464C165.689 283.464 165.979 283.368 166.212 283.178C166.445 282.985 166.618 282.726 166.732 282.402C166.848 282.079 166.906 281.718 166.906 281.32C166.906 280.919 166.848 280.557 166.732 280.233C166.618 279.907 166.445 279.647 166.212 279.454C165.979 279.26 165.689 279.164 165.342 279.164C164.987 279.164 164.692 279.26 164.456 279.454C164.223 279.647 164.048 279.907 163.932 280.233C163.818 280.557 163.761 280.919 163.761 281.32C163.761 281.718 163.818 282.079 163.932 282.402C164.048 282.726 164.223 282.985 164.456 283.178C164.692 283.368 164.987 283.464 165.342 283.464ZM175.611 284.699C174.972 284.699 174.418 284.559 173.949 284.277C173.481 283.996 173.117 283.603 172.858 283.097C172.603 282.591 172.475 282 172.475 281.324C172.475 280.648 172.603 280.056 172.858 279.547C173.117 279.039 173.481 278.644 173.949 278.363C174.418 278.081 174.972 277.941 175.611 277.941C176.25 277.941 176.804 278.081 177.273 278.363C177.742 278.644 178.104 279.039 178.36 279.547C178.618 280.056 178.748 280.648 178.748 281.324C178.748 282 178.618 282.591 178.36 283.097C178.104 283.603 177.742 283.996 177.273 284.277C176.804 284.559 176.25 284.699 175.611 284.699ZM175.62 283.464C175.966 283.464 176.256 283.368 176.489 283.178C176.722 282.985 176.895 282.726 177.009 282.402C177.125 282.079 177.184 281.718 177.184 281.32C177.184 280.919 177.125 280.557 177.009 280.233C176.895 279.907 176.722 279.647 176.489 279.454C176.256 279.26 175.966 279.164 175.62 279.164C175.265 279.164 174.969 279.26 174.733 279.454C174.5 279.647 174.326 279.907 174.209 280.233C174.096 280.557 174.039 280.919 174.039 281.32C174.039 281.718 174.096 282.079 174.209 282.402C174.326 282.726 174.5 282.985 174.733 283.178C174.969 283.368 175.265 283.464 175.62 283.464ZM185.931 284.699C185.275 284.699 184.708 284.563 184.231 284.29C183.757 284.015 183.391 283.625 183.136 283.123C182.88 282.617 182.752 282.022 182.752 281.337C182.752 280.664 182.88 280.073 183.136 279.564C183.394 279.053 183.755 278.655 184.218 278.371C184.681 278.084 185.225 277.941 185.85 277.941C186.254 277.941 186.634 278.006 186.992 278.137C187.353 278.265 187.671 278.464 187.947 278.733C188.225 279.003 188.444 279.347 188.603 279.765C188.762 280.179 188.842 280.674 188.842 281.248V281.721H183.477V280.681H187.363C187.36 280.385 187.296 280.123 187.171 279.892C187.046 279.66 186.872 279.476 186.647 279.343C186.426 279.209 186.167 279.142 185.872 279.142C185.556 279.142 185.279 279.219 185.041 279.373C184.802 279.523 184.616 279.722 184.482 279.969C184.352 280.214 184.285 280.482 184.282 280.775V281.682C184.282 282.063 184.352 282.39 184.491 282.662C184.63 282.932 184.825 283.14 185.075 283.285C185.325 283.427 185.617 283.498 185.953 283.498C186.177 283.498 186.38 283.466 186.562 283.404C186.744 283.339 186.901 283.243 187.035 283.118C187.168 282.993 187.269 282.839 187.337 282.654L188.778 282.816C188.687 283.196 188.514 283.529 188.258 283.813C188.005 284.094 187.681 284.313 187.286 284.469C186.891 284.623 186.44 284.699 185.931 284.699ZM194.114 280.302V281.571H190.185V280.302H194.114ZM195.737 284.571V278.026H197.211V279.138H197.288C197.424 278.763 197.65 278.471 197.965 278.26C198.281 278.047 198.657 277.941 199.095 277.941C199.538 277.941 199.911 278.049 200.215 278.265C200.522 278.478 200.738 278.769 200.863 279.138H200.931C201.076 278.775 201.32 278.485 201.664 278.269C202.011 278.05 202.421 277.941 202.896 277.941C203.498 277.941 203.989 278.131 204.37 278.512C204.751 278.892 204.941 279.448 204.941 280.178V284.571H203.394V280.417C203.394 280.01 203.286 279.714 203.07 279.526C202.855 279.336 202.59 279.241 202.278 279.241C201.906 279.241 201.614 279.357 201.404 279.59C201.197 279.82 201.093 280.12 201.093 280.489V284.571H199.58V280.353C199.58 280.015 199.478 279.745 199.274 279.543C199.072 279.341 198.808 279.241 198.481 279.241C198.259 279.241 198.058 279.297 197.876 279.411C197.694 279.522 197.549 279.679 197.441 279.884C197.333 280.086 197.279 280.321 197.279 280.591V284.571H195.737ZM208.39 284.704C207.975 284.704 207.601 284.63 207.269 284.482C206.939 284.331 206.678 284.11 206.485 283.817C206.295 283.525 206.199 283.164 206.199 282.735C206.199 282.366 206.268 282.06 206.404 281.819C206.54 281.577 206.726 281.384 206.962 281.239C207.198 281.094 207.464 280.985 207.759 280.911C208.057 280.834 208.366 280.779 208.684 280.745C209.067 280.705 209.378 280.669 209.617 280.638C209.856 280.604 210.029 280.553 210.137 280.485C210.248 280.414 210.303 280.304 210.303 280.157V280.131C210.303 279.81 210.208 279.562 210.018 279.385C209.827 279.209 209.553 279.121 209.195 279.121C208.817 279.121 208.518 279.204 208.296 279.368C208.077 279.533 207.929 279.728 207.853 279.952L206.412 279.748C206.526 279.35 206.714 279.017 206.975 278.75C207.236 278.481 207.556 278.279 207.934 278.145C208.312 278.009 208.729 277.941 209.187 277.941C209.502 277.941 209.816 277.978 210.128 278.052C210.441 278.125 210.726 278.248 210.985 278.418C211.243 278.586 211.451 278.814 211.607 279.104C211.766 279.394 211.846 279.756 211.846 280.191V284.571H210.363V283.672H210.312C210.218 283.854 210.086 284.025 209.915 284.184C209.748 284.34 209.536 284.466 209.28 284.563C209.027 284.657 208.731 284.704 208.39 284.704ZM208.79 283.57C209.1 283.57 209.368 283.509 209.596 283.387C209.823 283.262 209.998 283.097 210.12 282.892C210.245 282.688 210.307 282.465 210.307 282.223V281.452C210.259 281.492 210.177 281.529 210.06 281.563C209.946 281.597 209.819 281.627 209.677 281.652C209.535 281.678 209.394 281.701 209.255 281.721C209.116 281.741 208.995 281.758 208.893 281.772C208.662 281.803 208.456 281.854 208.275 281.925C208.093 281.996 207.949 282.096 207.844 282.223C207.739 282.348 207.687 282.51 207.687 282.709C207.687 282.993 207.79 283.208 207.998 283.353C208.205 283.498 208.469 283.57 208.79 283.57ZM213.397 284.571V278.026H214.939V284.571H213.397ZM214.172 277.097C213.928 277.097 213.718 277.016 213.542 276.854C213.366 276.689 213.277 276.492 213.277 276.262C213.277 276.029 213.366 275.831 213.542 275.669C213.718 275.505 213.928 275.422 214.172 275.422C214.419 275.422 214.63 275.505 214.803 275.669C214.979 275.831 215.067 276.029 215.067 276.262C215.067 276.492 214.979 276.689 214.803 276.854C214.63 277.016 214.419 277.097 214.172 277.097ZM218.068 275.844V284.571H216.526V275.844H218.068Z" fill="black"/>
<defs>
<clipPath id="clip0_71_24">
<rect width="15.9317" height="16.2857" fill="white" transform="translate(199.603 234.857)"/>
</clipPath>
</defs>
</svg>
